<svg width="41" height="44" viewBox="0 0 41 44" fill="none" xmlns="http://www.w3.org/2000/svg">
<path d="M38.848 13.1518C38.8334 12.6708 38.4313 12.1581 37.8304 12.0498C37.7335 12.0323 37.6734 12.0233 37.6223 12.0211C37.4237 12.0121 7.77096 10.6729 7.04043 10.6401C6.45188 10.6136 6.08194 10.5089 5.76199 11.0219C5.59007 11.2974 5.55327 11.6232 5.55959 11.9337C5.57524 12.6063 5.60628 12.9701 5.60628 13.1565C5.60628 15.5739 4.66427 16.3777 3.23259 16.657C2.05029 16.888 0.8125 16.8885 0.8125 16.8885L3.85053 39.3778C3.85053 39.3778 34.4832 43.985 34.9775 43.9989C35.2953 44.0079 35.9481 44.0022 36.257 43.8888C37.0469 43.5993 37.5857 43.103 37.8887 42.6272C38.4083 41.8102 38.7409 41.0242 38.9174 40.1556C39.1226 39.146 39.2336 38.0795 39.2176 37.0527C39.2176 37.0527 38.8477 13.1521 38.8477 13.1518H38.848Z" fill="url(#paint0_linear_282_13579)"/>
<path d="M39.2176 37.053C39.2333 38.0795 39.1223 39.146 38.9174 40.1553C38.7409 41.0239 38.408 41.8102 37.8881 42.6272C37.5857 43.103 37.0466 43.5996 36.2565 43.8885C35.9481 44.0019 35.295 44.0079 34.977 43.9989C34.9374 43.9976 34.7081 43.9678 34.3187 43.9128C29.8078 43.2815 3.85025 39.3778 3.85025 39.3778L0.8125 16.8885C0.8125 16.8885 2.05029 16.8877 3.23205 16.6565C4.66345 16.3772 5.60545 15.5736 5.60545 13.1562C5.60545 12.9695 5.57497 12.6063 5.55931 11.9334C5.55272 11.6229 5.58897 11.2974 5.76117 11.0219C6.0814 10.5089 6.45078 10.6136 7.03988 10.6401C7.77041 10.6726 37.4234 12.0118 37.6214 12.0209C37.6431 12.0217 37.6668 12.0239 37.6937 12.0274C37.7302 12.0318 37.7741 12.0392 37.8299 12.0496C38.4308 12.1578 38.8331 12.6705 38.8471 13.1515L39.2174 37.0524L39.2176 37.053Z" fill="url(#paint1_linear_282_13579)"/>
<path d="M34.5934 11.7644C35.4167 9.49479 36.663 6.98715 38.7305 5.56374C39.1482 5.27621 39.7214 4.91572 40.0839 4.6107C39.1581 4.56834 38.07 4.58993 37.1428 4.58036C34.9059 4.5574 25.5576 4.46092 23.1202 4.43578C21.5377 4.41938 19.9555 4.40326 18.3731 4.38686C16.5256 4.368 14.9036 6.27982 13.9839 7.67863C12.9466 9.25646 12.2855 11.0554 11.8 12.8688C11.1416 15.3267 9.72837 27.3945 9.52184 28.5064C9.15658 30.4745 8.14207 33.593 5.60938 33.4328C6.62525 33.5055 25.7295 35.0139 27.2178 35.1192C28.954 35.2421 30.0753 33.948 30.7617 32.5159C31.6026 30.7607 32.3556 22.9639 32.5976 20.946C32.8401 18.9241 34.2215 12.7879 34.5931 11.7641L34.5934 11.7644Z" fill="url(#paint2_linear_282_13579)"/>
<path d="M34.5934 11.7644C35.4167 9.49479 36.663 6.98715 38.7305 5.56374C39.1482 5.27621 39.7214 4.91572 40.0839 4.6107C39.1581 4.56834 38.07 4.58993 37.1428 4.58036C34.9059 4.5574 25.5576 4.46092 23.1202 4.43578C21.5377 4.41938 19.9555 4.40326 18.3731 4.38686C16.5256 4.368 14.9036 6.27982 13.9839 7.67863C12.9466 9.25646 12.2855 11.0554 11.8 12.8688C11.1416 15.3267 9.72837 27.3945 9.52184 28.5064C9.15658 30.4745 8.14207 33.593 5.60938 33.4328C6.62525 33.5055 25.7295 35.0139 27.2178 35.1192C28.954 35.2421 30.0753 33.948 30.7617 32.5159C31.6026 30.7607 32.3556 22.9639 32.5976 20.946C32.8401 18.9241 34.2215 12.7879 34.5931 11.7641L34.5934 11.7644Z" fill="url(#paint3_linear_282_13579)"/>
<path d="M30.3906 35.638C31.0481 35.0709 31.5803 34.3479 31.9777 33.59C32.5446 32.5091 32.8873 31.2814 33.1139 30.0876C33.6058 27.4971 33.7601 24.8493 34.0443 22.2312C34.1948 20.8444 34.364 19.4582 34.5895 18.0815C34.8825 16.2924 35.2714 14.5055 35.8199 12.776C36.3821 11.0033 37.1782 9.07505 38.4902 7.71614C39.071 7.11458 39.7293 6.65952 40.4788 6.3903C40.9668 6.21511 41.0882 5.68461 40.9407 5.24786C40.7941 4.81329 40.3412 4.4875 39.8765 4.65341C39.0485 4.94995 38.2894 5.4799 37.6003 6.1845C36.0385 7.78146 35.0347 9.95566 34.3105 12.0369C33.6673 13.8853 33.2287 15.8291 32.9115 17.7582C32.6797 19.1685 32.5053 20.59 32.3509 22.0106C32.134 24.0094 31.9552 26.0133 31.7055 28.0082C31.5147 29.5341 31.2507 31.2013 30.5573 32.5908C30.2802 33.1462 29.7666 33.7633 29.1641 34.2296L30.3903 35.638H30.3906Z" fill="url(#paint4_linear_282_13579)"/>
<path d="M31.3864 7.37765C32.2097 5.10807 33.456 2.60043 35.5235 1.17702C35.9412 0.889496 36.5144 0.528997 36.8769 0.223981C35.9511 0.181618 34.863 0.203209 33.9358 0.193643C31.6992 0.170685 22.3505 0.074206 19.9131 0.0490613C18.3307 0.0326626 16.7485 0.0165372 15.1661 0.000138441C13.3186 -0.0187201 11.6966 1.8931 10.7768 3.29191C9.73952 4.86974 9.07848 6.66868 8.59292 8.48211C7.93462 10.94 6.52134 23.0078 6.31481 24.1197C5.94955 26.0878 4.93504 29.2063 2.40234 29.0461C3.41822 29.1188 22.5225 30.6272 24.0107 30.7324C25.747 30.8554 26.8683 29.5613 27.5546 28.1291C28.3956 26.3739 29.1486 18.5772 29.3906 16.5593C29.6331 14.5373 31.0145 8.4012 31.3861 7.37738L31.3864 7.37765Z" fill="url(#paint5_radial_282_13579)"/>
<path d="M31.3864 7.37765C32.2097 5.10807 33.456 2.60043 35.5235 1.17702C35.9412 0.889496 36.5144 0.528997 36.8769 0.223981C35.9511 0.181618 34.863 0.203209 33.9358 0.193643C31.6992 0.170685 22.3505 0.074206 19.9131 0.0490613C18.3307 0.0326626 16.7485 0.0165372 15.1661 0.000138441C13.3186 -0.0187201 11.6966 1.8931 10.7768 3.29191C9.73952 4.86974 9.07848 6.66868 8.59292 8.48211C7.93462 10.94 6.52134 23.0078 6.31481 24.1197C5.94955 26.0878 4.93504 29.2063 2.40234 29.0461C3.41822 29.1188 22.5225 30.6272 24.0107 30.7324C25.747 30.8554 26.8683 29.5613 27.5546 28.1291C28.3956 26.3739 29.1486 18.5772 29.3906 16.5593C29.6331 14.5373 31.0145 8.4012 31.3861 7.37738L31.3864 7.37765Z" fill="url(#paint6_linear_282_13579)"/>
<path d="M27.1904 31.2455C27.8446 30.6792 28.3749 29.9585 28.7709 29.2033C29.3378 28.1224 29.6805 26.8947 29.9071 25.7008C30.399 23.1104 30.5536 20.4625 30.8376 17.8445C30.9881 16.4577 31.1572 15.0715 31.3827 13.6948C31.6758 11.9057 32.0646 10.1188 32.6131 8.38925C33.1753 6.61655 33.9714 4.68833 35.2834 3.32942C35.8642 2.72786 36.5225 2.2728 37.272 2.00358C37.76 1.82839 37.8814 1.29789 37.734 0.86114C37.5873 0.426574 37.1344 0.100786 36.6697 0.266686C35.8417 0.56323 35.0826 1.09318 34.3936 1.79778C32.8317 3.39474 31.8279 5.56894 31.1037 7.65021C30.4605 9.49862 30.0219 11.4424 29.7047 13.3715C29.4729 14.7817 29.2985 16.2032 29.1442 17.6239C28.9272 19.6226 28.7484 21.6266 28.4988 23.6215C28.3079 25.1474 28.044 26.8146 27.3505 28.2041C27.0811 28.7439 26.5884 29.3422 26.0078 29.8032L27.1904 31.2455Z" fill="url(#paint7_linear_282_13579)"/>
<path d="M32.507 24.6838L15.621 23.8119C14.9556 23.778 14.3692 23.4079 14.108 22.8569L11.9642 18.3331C11.7031 17.7821 11.1167 17.412 10.4513 17.3781C10.4513 17.3781 0.799723 16.8875 0.795054 16.8873C0.473455 16.8725 0.27764 17.1669 0.167511 17.3962C0.0398048 17.6624 -0.00688341 17.9573 0.000806406 18.2459C0.000806406 18.2473 0.000806406 18.2489 0.000806406 18.2503L0.451759 36.6644C0.477575 37.7049 0.653067 38.7563 1.09441 39.7236C1.2894 40.151 1.53822 40.5659 1.87135 40.9199C2.252 41.3241 2.80265 41.6704 3.41014 41.7138C3.71251 41.7357 4.01516 41.7576 4.31754 41.7794C5.13623 41.8387 5.95519 41.898 6.77388 41.9573C7.97789 42.0445 9.18162 42.1317 10.3856 42.2189C11.8434 42.3244 13.3012 42.4299 14.7589 42.5354C16.3395 42.6499 17.9197 42.7642 19.5003 42.8787C21.072 42.9924 22.644 43.1064 24.2158 43.2201C25.6477 43.3236 27.0799 43.4275 28.5119 43.5311C29.6728 43.615 30.8339 43.6992 31.9948 43.7831C32.7536 43.838 33.5122 43.8929 34.271 43.9479C34.5064 43.9648 34.9771 43.999 34.9771 43.999L32.507 24.6838Z" fill="url(#paint8_linear_282_13579)"/>
<path d="M34.9269 43.9943C34.9269 43.9943 34.4897 43.9624 34.2717 43.9476C33.5128 43.8921 32.7546 43.8372 31.9958 43.7823C30.8346 43.6986 29.6737 43.6139 28.5125 43.5303C27.0803 43.4264 25.6484 43.3228 24.2161 43.219C22.6447 43.1055 21.0727 42.9916 19.5004 42.8781C17.9201 42.7642 16.3398 42.6491 14.7593 42.5349C13.301 42.4288 11.8438 42.3236 10.3855 42.2184C9.182 42.1309 7.97772 42.0443 6.77426 41.9568C5.95502 41.8975 5.13661 41.8382 4.31737 41.7789C4.015 41.7573 3.71262 41.7351 3.41025 41.713C2.80248 41.6701 2.2521 41.3238 1.87173 40.9193C1.53805 40.5656 1.28923 40.1508 1.09424 39.723C0.653448 38.7558 0.47768 37.7041 0.45159 36.6644L0.000911828 18.25V18.2456C-0.00732726 17.9573 0.0396355 17.6624 0.167616 17.3956C0.277745 17.1666 0.473011 16.8725 0.794611 16.8873C0.799005 16.8873 8.45476 17.2764 10.1298 17.3617C10.3352 17.3721 10.4508 17.3781 10.4508 17.3781C11.1165 17.4123 11.7026 17.7821 11.9641 18.3328L14.1082 22.8567C14.3688 23.4074 14.9557 23.778 15.6206 23.8113L15.6631 23.8135L32.5272 24.6846L34.9264 43.9946L34.9269 43.9943Z" fill="url(#paint9_linear_282_13579)"/>
<path d="M39.2185 37.0526C39.2342 38.0792 39.1232 39.1456 38.9183 40.155C38.7417 41.0236 38.4089 41.8099 37.889 42.6268C37.5866 43.1027 37.0475 43.5993 36.2574 43.8882C35.949 44.0016 35.2959 44.0076 34.9778 43.9986C34.9383 43.9972 34.7502 44.0109 34.3819 43.8728C34.1844 43.7991 33.9702 43.6383 33.7401 43.4263C33.0601 42.7985 32.7137 41.9468 32.4896 41.1102C32.2916 40.3728 32.1859 39.5857 32.1859 38.8267L31.8643 26.08C31.8577 25.6878 31.8635 24.6369 32.5286 24.6844C33.2117 24.7333 34.4865 25.0261 35.7488 24.0744C37.0371 23.1019 37.1445 18.2941 37.131 17.3618L37.0684 13.4272C37.0623 13.0307 37.1392 12.0517 37.6948 12.0273C37.7314 12.0317 37.7753 12.0391 37.831 12.0495C38.4319 12.1577 38.8343 12.6704 38.8483 13.1515L39.2185 37.0523V37.0526Z" fill="url(#paint10_linear_282_13579)"/>
<path d="M39.2185 37.0526C39.2342 38.0792 39.1232 39.1456 38.9183 40.155C38.7417 41.0236 38.4089 41.8099 37.889 42.6268C37.5866 43.1027 37.0475 43.5993 36.2574 43.8882C35.949 44.0016 35.2959 44.0076 34.9778 43.9986C34.9383 43.9972 34.7502 44.0109 34.3819 43.8728C34.1844 43.7991 33.9702 43.6383 33.7401 43.4263C33.0601 42.7985 32.7137 41.9468 32.4896 41.1102C32.2916 40.3728 32.1859 39.5857 32.1859 38.8267L31.8643 26.08C31.8577 25.6878 31.8635 24.6369 32.5286 24.6844C33.2117 24.7333 34.4865 25.0261 35.7488 24.0744C37.0371 23.1019 37.1445 18.2941 37.131 17.3618L37.0684 13.4272C37.0623 13.0307 37.1392 12.0517 37.6948 12.0273C37.7314 12.0317 37.7753 12.0391 37.831 12.0495C38.4319 12.1577 38.8343 12.6704 38.8483 13.1515L39.2185 37.0523V37.0526Z" fill="url(#paint11_radial_282_13579)"/>
<path d="M14.8194 23.7814C14.0793 23.7489 13.0269 23.4515 12.6797 22.7215L10.1289 17.3594C10.3343 17.3698 10.45 17.3758 10.45 17.3758C11.1157 17.4099 11.7017 17.7797 11.9632 18.3305L14.1073 22.8543C14.3679 23.405 14.9548 23.7756 15.6197 23.809C15.6197 23.809 15.2825 23.8016 14.8191 23.7817L14.8194 23.7814Z" fill="url(#paint12_linear_282_13579)"/>
<path opacity="0.5" d="M16.4103 5.59256C16.407 5.58901 16.4037 5.58573 16.4004 5.58217C15.5858 4.73518 13.5345 4.95164 12.9136 6.08261C12.7532 6.37478 12.6996 6.69346 12.6917 7.00558C12.6898 7.07801 12.7233 7.22451 12.6683 7.28819C12.6238 7.33902 12.5313 7.31771 12.4764 7.3341C12.1701 7.42512 12.1443 7.81814 12.1663 8.06029C12.1927 8.33962 12.277 8.62824 12.431 8.84251C12.4895 8.92396 12.6269 9.06062 12.7515 8.96058C12.7735 8.94309 12.8128 8.87148 12.8485 8.89772C12.9037 8.93845 12.9133 9.03793 12.9375 9.10189C13.0152 9.30578 13.13 9.49245 13.2871 9.6384C13.3459 9.69251 13.3362 9.79446 13.2665 9.85486C13.0723 10.0216 12.7969 10.2214 12.4404 10.3881C12.0836 10.5534 11.7634 10.6324 11.5231 10.6721C11.4506 10.6841 11.388 10.7439 11.3748 10.8145C11.2888 11.2799 11.1576 11.92 11.0452 12.576C10.9738 12.9952 11.293 13.2636 11.6516 13.2745C13.1201 13.3188 14.5812 13.3628 16.0488 13.4071C16.4075 13.418 16.7967 13.1707 16.8392 12.7506C16.9051 12.0933 16.948 11.4505 16.9886 10.9836C16.9947 10.9129 16.9488 10.8497 16.8802 10.8333C16.6528 10.7797 16.3564 10.6819 16.0472 10.4966C15.7388 10.3099 15.5196 10.0951 15.3721 9.918C15.3191 9.85404 15.3372 9.75237 15.4103 9.70208C15.6229 9.55558 15.8074 9.35497 15.9362 9.14261C15.9659 9.09369 15.9961 9.00185 16.0631 8.98655C16.1378 8.9696 16.1801 9.11446 16.2776 9.09205C16.4407 9.05433 16.5558 8.89499 16.644 8.77227C16.7659 8.60227 16.8653 8.42161 16.9378 8.23221C17.029 7.99361 17.1309 7.52652 16.812 7.45108C16.7629 7.43933 16.6986 7.46283 16.6591 7.42129C16.603 7.36198 16.6648 7.25484 16.6863 7.18706C16.8659 6.61693 16.8071 6.02303 16.4108 5.59256H16.4103Z" fill="#9EC9D8"/>
<path d="M16.254 5.42068C16.2507 5.41713 16.2474 5.41385 16.2441 5.4103C15.4295 4.5633 13.3783 4.77977 12.7573 5.91073C12.5969 6.2029 12.5434 6.52159 12.5354 6.83371C12.5335 6.90614 12.567 7.05263 12.5121 7.11631C12.4676 7.16715 12.375 7.14583 12.3201 7.16223C12.0139 7.25324 11.9881 7.64626 12.01 7.88842C12.0364 8.16774 12.1207 8.45636 12.2748 8.67064C12.3333 8.75209 12.4706 8.88874 12.5953 8.78871C12.6173 8.77122 12.6565 8.69961 12.6922 8.72585C12.7474 8.76657 12.7571 8.86606 12.7812 8.93001C12.859 9.1339 12.9737 9.32057 13.1308 9.46652C13.1896 9.52064 13.18 9.62258 13.1102 9.68299C12.9161 9.84971 12.6406 10.0495 12.2841 10.2162C11.9274 10.3816 11.6072 10.4606 11.3669 10.5002C11.2943 10.5122 11.2317 10.5721 11.2185 10.6426C11.1326 11.108 11.0013 11.7481 10.889 12.4041C10.8176 12.8233 11.1367 13.0917 11.4954 13.1027C12.9639 13.1469 14.4249 13.1909 15.8926 13.2352C16.2513 13.2462 16.6404 12.9988 16.683 12.5787C16.7489 11.9214 16.7917 11.2786 16.8324 10.8118C16.8384 10.741 16.7926 10.6778 16.7239 10.6614C16.4965 10.6079 16.2002 10.51 15.8909 10.3247C15.5825 10.1381 15.3634 9.92323 15.2159 9.74612C15.1629 9.68217 15.181 9.58049 15.2541 9.5302C15.4666 9.38371 15.6512 9.1831 15.78 8.97074C15.8096 8.92181 15.8399 8.82998 15.9069 8.81467C15.9816 8.79773 16.0239 8.94258 16.1214 8.92017C16.2845 8.88246 16.3996 8.72311 16.4877 8.6004C16.6097 8.4304 16.7091 8.24974 16.7816 8.06033C16.8728 7.82173 16.9746 7.35464 16.6558 7.27921C16.6066 7.26745 16.5424 7.29096 16.5028 7.24942C16.4468 7.19011 16.5086 7.08297 16.53 7.01519C16.7096 6.44506 16.6509 5.85115 16.2546 5.42068H16.254Z" fill="url(#paint13_linear_282_13579)"/>
<path d="M16.254 5.42068C16.2507 5.41713 16.2474 5.41385 16.2441 5.4103C15.4295 4.5633 13.3783 4.77977 12.7573 5.91073C12.5969 6.2029 12.5434 6.52159 12.5354 6.83371C12.5335 6.90614 12.567 7.05263 12.5121 7.11631C12.4676 7.16715 12.375 7.14583 12.3201 7.16223C12.0139 7.25324 11.9881 7.64626 12.01 7.88842C12.0364 8.16774 12.1207 8.45636 12.2748 8.67064C12.3333 8.75209 12.4706 8.88874 12.5953 8.78871C12.6173 8.77122 12.6565 8.69961 12.6922 8.72585C12.7474 8.76657 12.7571 8.86606 12.7812 8.93001C12.859 9.1339 12.9737 9.32057 13.1308 9.46652C13.1896 9.52064 13.18 9.62258 13.1102 9.68299C12.9161 9.84971 12.6406 10.0495 12.2841 10.2162C11.9274 10.3816 11.6072 10.4606 11.3669 10.5002C11.2943 10.5122 11.2317 10.5721 11.2185 10.6426C11.1326 11.108 11.0013 11.7481 10.889 12.4041C10.8176 12.8233 11.1367 13.0917 11.4954 13.1027C12.9639 13.1469 14.4249 13.1909 15.8926 13.2352C16.2513 13.2462 16.6404 12.9988 16.683 12.5787C16.7489 11.9214 16.7917 11.2786 16.8324 10.8118C16.8384 10.741 16.7926 10.6778 16.7239 10.6614C16.4965 10.6079 16.2002 10.51 15.8909 10.3247C15.5825 10.1381 15.3634 9.92323 15.2159 9.74612C15.1629 9.68217 15.181 9.58049 15.2541 9.5302C15.4666 9.38371 15.6512 9.1831 15.78 8.97074C15.8096 8.92181 15.8399 8.82998 15.9069 8.81467C15.9816 8.79773 16.0239 8.94258 16.1214 8.92017C16.2845 8.88246 16.3996 8.72311 16.4877 8.6004C16.6097 8.4304 16.7091 8.24974 16.7816 8.06033C16.8728 7.82173 16.9746 7.35464 16.6558 7.27921C16.6066 7.26745 16.5424 7.29096 16.5028 7.24942C16.4468 7.19011 16.5086 7.08297 16.53 7.01519C16.7096 6.44506 16.6509 5.85115 16.2546 5.42068H16.254Z" fill="url(#paint14_radial_282_13579)"/>
<path opacity="0.5" d="M25.7771 8.12116L21.5428 7.99353C21.1484 7.98177 20.8697 7.67457 20.9199 7.30751C20.9702 6.94046 21.3308 6.65266 21.7252 6.66441L25.9595 6.79205C26.3539 6.8038 26.6326 7.111 26.5824 7.47806C26.5321 7.84512 26.1715 8.13292 25.7771 8.12116Z" fill="#729EB1"/>
<path opacity="0.5" d="M27.8736 10.2448L18.8787 9.974C18.4844 9.96224 18.2056 9.65504 18.2559 9.28798C18.3061 8.92092 18.6667 8.63313 19.0611 8.64488L28.056 8.91573C28.4504 8.92748 28.7291 9.23469 28.6789 9.60174C28.6286 9.9688 28.268 10.2566 27.8736 10.2448Z" fill="#729EB1"/>
<path opacity="0.5" d="M26.295 14.9236L18.7697 14.697C18.461 14.6877 18.2426 14.4472 18.2819 14.16C18.3215 13.8727 18.6038 13.6472 18.9125 13.6565L26.4378 13.8831C26.7465 13.8924 26.9648 14.1329 26.9255 14.4202C26.886 14.7074 26.6037 14.9329 26.295 14.9236Z" fill="#9EC9D8"/>
<path opacity="0.5" d="M26.0645 16.9509L18.5392 16.7244C18.2305 16.7151 18.0122 16.4746 18.0514 16.1873C18.091 15.9001 18.3733 15.6746 18.682 15.6839L26.2073 15.9104C26.516 15.9197 26.7343 16.1603 26.6951 16.4475C26.6555 16.7348 26.3732 16.9602 26.0645 16.9509Z" fill="#9EC9D8"/>
<path opacity="0.5" d="M25.8653 18.9275L18.34 18.7009C18.0313 18.6916 17.813 18.4511 17.8522 18.1639C17.8918 17.8766 18.1741 17.6511 18.4828 17.6604L26.0081 17.887C26.3168 17.8963 26.5351 18.1368 26.4958 18.4241C26.4563 18.7113 26.174 18.9368 25.8653 18.9275Z" fill="#9EC9D8"/>
<path d="M25.6599 7.99226L21.4256 7.86462C21.0312 7.85287 20.7525 7.54567 20.8027 7.17861C20.853 6.81155 21.2136 6.52375 21.608 6.5355L25.8423 6.66314C26.2367 6.67489 26.5154 6.9821 26.4652 7.34915C26.4149 7.71621 26.0543 8.00401 25.6599 7.99226Z" fill="url(#paint15_linear_282_13579)"/>
<path d="M27.7564 10.1159L18.7615 9.84509C18.3672 9.83334 18.0884 9.52613 18.1387 9.15908C18.1889 8.79202 18.5495 8.50422 18.9439 8.51597L27.9388 8.78682C28.3332 8.79858 28.6119 9.10578 28.5617 9.47284C28.5114 9.8399 28.1508 10.1277 27.7564 10.1159Z" fill="url(#paint16_linear_282_13579)"/>
<path opacity="0.5" d="M27.483 12.5339L18.4881 12.2631C18.0937 12.2513 17.815 11.9441 17.8652 11.577C17.9155 11.21 18.2761 10.9222 18.6705 10.9339L27.6654 11.2048C28.0597 11.2165 28.3385 11.5237 28.2882 11.8908C28.238 12.2579 27.8774 12.5457 27.483 12.5339Z" fill="#729EB1"/>
<path d="M27.3658 12.405L18.3709 12.1342C17.9765 12.1224 17.6978 11.8152 17.748 11.4481C17.7983 11.0811 18.1589 10.7933 18.5533 10.805L27.5482 11.0759C27.9425 11.0876 28.2213 11.3948 28.171 11.7619C28.1208 12.129 27.7602 12.4168 27.3658 12.405Z" fill="url(#paint17_linear_282_13579)"/>
<path d="M26.1543 14.7672L18.629 14.5407C18.3203 14.5314 18.102 14.2908 18.1413 14.0036C18.1808 13.7163 18.4632 13.4909 18.7719 13.5002L26.2972 13.7267C26.6058 13.736 26.8242 13.9765 26.7849 14.2638C26.7454 14.551 26.463 14.7765 26.1543 14.7672Z" fill="url(#paint18_linear_282_13579)"/>
<path d="M25.9239 16.7947L18.3986 16.5681C18.0899 16.5588 17.8715 16.3183 17.9108 16.0311C17.9504 15.7438 18.2327 15.5183 18.5414 15.5276L26.0667 15.7542C26.3754 15.7635 26.5937 16.004 26.5544 16.2913C26.5149 16.5785 26.2326 16.804 25.9239 16.7947Z" fill="url(#paint19_linear_282_13579)"/>
<path d="M25.7247 18.7752L18.1994 18.5486C17.8907 18.5393 17.6723 18.2988 17.7116 18.0115C17.7511 17.7243 18.0335 17.4988 18.3422 17.5081L25.8675 17.7347C26.1762 17.744 26.3945 17.9845 26.3552 18.2717C26.3157 18.559 26.0334 18.7845 25.7247 18.7752Z" fill="url(#paint20_linear_282_13579)"/>
<path opacity="0.5" d="M25.795 20.8845L18.2697 20.658C17.961 20.6487 17.7426 20.4082 17.7819 20.1209C17.8215 19.8337 18.1038 19.6082 18.4125 19.6175L25.9378 19.844C26.2465 19.8533 26.4648 20.0938 26.4255 20.3811C26.386 20.6683 26.1037 20.8938 25.795 20.8845Z" fill="#9EC9D8"/>
<path d="M25.6504 20.7283L18.1251 20.5017C17.8164 20.4924 17.5981 20.2519 17.6374 19.9647C17.6769 19.6774 17.9593 19.4519 18.2679 19.4612L25.7933 19.6878C26.1019 19.6971 26.3203 19.9376 26.281 20.2248C26.2415 20.5121 25.9591 20.7376 25.6504 20.7283Z" fill="url(#paint21_linear_282_13579)"/>
<defs>
<linearGradient id="paint0_linear_282_13579" x1="0.812775" y1="44.0017" x2="39.2193" y2="44.0017" gradientUnits="userSpaceOnUse">
<stop stop-color="#5A87F6"/>
<stop offset="0.06" stop-color="#456BF8"/>
<stop offset="0.13" stop-color="#3453FA"/>
<stop offset="0.16" stop-color="#395BF9"/>
<stop offset="0.29" stop-color="#4A75F7"/>
<stop offset="0.42" stop-color="#5788F6"/>
<stop offset="0.56" stop-color="#5E94F5"/>
<stop offset="0.7" stop-color="#6198F5"/>
<stop offset="0.81" stop-color="#5F95F5"/>
<stop offset="0.88" stop-color="#5A8BF6"/>
<stop offset="0.95" stop-color="#517BF8"/>
<stop offset="1" stop-color="#496CFB"/>
</linearGradient>
<linearGradient id="paint1_linear_282_13579" x1="15.1984" y1="10.9188" x2="14.8812" y2="20.5225" gradientUnits="userSpaceOnUse">
<stop offset="0.02" stop-color="#83BCFA"/>
<stop offset="0.2" stop-color="#83BCFA"/>
</linearGradient>
<linearGradient id="paint2_linear_282_13579" x1="19.9059" y1="24.8492" x2="32.9591" y2="25.8918" gradientUnits="userSpaceOnUse">
<stop offset="0.69" stop-color="#729EB1"/>
<stop offset="0.84" stop-color="#91BCCC"/>
<stop offset="1" stop-color="#B7DFED"/>
</linearGradient>
<linearGradient id="paint3_linear_282_13579" x1="6.44159" y1="2.44457" x2="4.64048" y2="33.7407" gradientUnits="userSpaceOnUse">
<stop offset="0.03" stop-color="#CFEBFE"/>
<stop offset="0.2" stop-color="#B4D8E9"/>
<stop offset="0.37" stop-color="#9EC9D8"/>
<stop offset="0.54" stop-color="#94BECC"/>
<stop offset="0.67" stop-color="#8AB3C1"/>
</linearGradient>
<linearGradient id="paint4_linear_282_13579" x1="40.9358" y1="-23.3999" x2="14.1498" y2="-18.7954" gradientUnits="userSpaceOnUse">
<stop stop-color="#F3F8FB"/>
<stop offset="0.03" stop-color="#E6F3FC"/>
<stop offset="0.09" stop-color="#D8EEFD"/>
<stop offset="0.16" stop-color="#D1EBFD"/>
<stop offset="0.3" stop-color="#CFEBFE"/>
<stop offset="0.45" stop-color="#BBDBEC"/>
<stop offset="0.76" stop-color="#8AB3C1"/>
</linearGradient>
<radialGradient id="paint5_radial_282_13579" cx="0" cy="0" r="1" gradientTransform="matrix(86.9004 6.22941 -6.98608 77.4881 -46.9276 8.7407)" gradientUnits="userSpaceOnUse">
<stop offset="0.63" stop-color="#B7DFED"/>
<stop offset="0.63" stop-color="#C0E3EF"/>
<stop offset="0.65" stop-color="#D7ECF4"/>
<stop offset="0.67" stop-color="#E6F2F8"/>
<stop offset="0.7" stop-color="#F0F6FA"/>
<stop offset="0.73" stop-color="#F3F8FB"/>
<stop offset="0.82" stop-color="#F3F8FB"/>
<stop offset="0.82" stop-color="#F3F8FB"/>
<stop offset="0.85" stop-color="#EAF4F8"/>
<stop offset="0.88" stop-color="#D1EAF3"/>
<stop offset="0.92" stop-color="#B7DFED"/>
<stop offset="0.95" stop-color="#B1D9E8"/>
<stop offset="0.99" stop-color="#A0CBD9"/>
<stop offset="1" stop-color="#9EC9D8"/>
</radialGradient>
<linearGradient id="paint6_linear_282_13579" x1="3.23423" y1="-1.94229" x2="1.4331" y2="29.3541" gradientUnits="userSpaceOnUse">
<stop stop-color="#B7DFED"/>
<stop offset="0.21" stop-color="#F3F8FB"/>
<stop offset="0.82" stop-color="#9EC9D8"/>
<stop offset="0.93" stop-color="#91BBC9"/>
<stop offset="0.99" stop-color="#8AB3C1"/>
</linearGradient>
<linearGradient id="paint7_linear_282_13579" x1="36.7893" y1="-24.7851" x2="11.2232" y2="-19.7293" gradientUnits="userSpaceOnUse">
<stop stop-color="#F3F8FB"/>
<stop offset="0.03" stop-color="#E6F3FC"/>
<stop offset="0.09" stop-color="#D8EEFD"/>
<stop offset="0.16" stop-color="#D1EBFD"/>
<stop offset="0.3" stop-color="#CFEBFE"/>
<stop offset="0.45" stop-color="#BBDBEC"/>
<stop offset="0.76" stop-color="#8AB3C1"/>
</linearGradient>
<linearGradient id="paint8_linear_282_13579" x1="-1.75029e-05" y1="43.9992" x2="34.9774" y2="43.9992" gradientUnits="userSpaceOnUse">
<stop stop-color="#6198F5"/>
<stop offset="0.05" stop-color="#72AAF7"/>
<stop offset="0.1" stop-color="#7EB7F9"/>
<stop offset="0.14" stop-color="#83BCFA"/>
<stop offset="0.32" stop-color="#6EA5F6"/>
<stop offset="0.47" stop-color="#6198F5"/>
<stop offset="0.63" stop-color="#5D90F5"/>
<stop offset="0.75" stop-color="#5A87F6"/>
</linearGradient>
<linearGradient id="paint9_linear_282_13579" x1="-0.00460843" y1="14.4151" x2="-1.28324" y2="43.3671" gradientUnits="userSpaceOnUse">
<stop offset="0.11" stop-color="#83BCFA"/>
<stop offset="0.13" stop-color="#74ACF7"/>
<stop offset="0.16" stop-color="#69A0F6"/>
<stop offset="0.2" stop-color="#6299F5"/>
<stop offset="0.32" stop-color="#6198F5"/>
<stop offset="0.42" stop-color="#5C8FF6"/>
<stop offset="0.82" stop-color="#4C6FFA"/>
<stop offset="0.92" stop-color="#496CFB"/>
<stop offset="1" stop-color="#496CFB"/>
</linearGradient>
<linearGradient id="paint10_linear_282_13579" x1="30.5484" y1="47.9188" x2="39.6724" y2="47.9126" gradientUnits="userSpaceOnUse">
<stop offset="0.15" stop-color="#5A87F6"/>
<stop offset="0.54" stop-color="#496CFB"/>
<stop offset="0.66" stop-color="#4B70FA"/>
<stop offset="0.8" stop-color="#537EF8"/>
<stop offset="0.94" stop-color="#5F96F5"/>
<stop offset="0.95" stop-color="#6198F5"/>
</linearGradient>
<radialGradient id="paint11_radial_282_13579" cx="0" cy="0" r="1" gradientUnits="userSpaceOnUse" gradientTransform="translate(34.1412 12.3056) scale(31.2266 135.719)">
<stop stop-color="#6198F5"/>
<stop offset="0.4" stop-color="#6198F5"/>
<stop offset="0.65" stop-color="#6198F5"/>
<stop offset="0.87" stop-color="#4C6FFA"/>
<stop offset="0.985577" stop-color="#4C6FFA"/>
<stop offset="1" stop-color="#4C6FFA"/>
</radialGradient>
<linearGradient id="paint12_linear_282_13579" x1="13.648" y1="18.5109" x2="11.0393" y2="19.3992" gradientUnits="userSpaceOnUse">
<stop offset="0.31" stop-color="#496CFB"/>
<stop offset="0.87" stop-color="#496CFB"/>
</linearGradient>
<linearGradient id="paint13_linear_282_13579" x1="10.7654" y1="8.37231" x2="16.6437" y2="14.4447" gradientUnits="userSpaceOnUse">
<stop offset="0.01" stop-color="#3EC7CF"/>
<stop offset="0.51" stop-color="#27A0A9"/>
<stop offset="0.7" stop-color="#2298A2"/>
<stop offset="0.99" stop-color="#15848E"/>
<stop offset="1" stop-color="#15838E"/>
</linearGradient>
<radialGradient id="paint14_radial_282_13579" cx="0" cy="0" r="1" gradientUnits="userSpaceOnUse" gradientTransform="translate(13.7389 6.28517) scale(6.38447 8.88488)">
<stop stop-color="#64D0D6"/>
<stop offset="1" stop-color="#64D0D6"/>
</radialGradient>
<linearGradient id="paint15_linear_282_13579" x1="22.5656" y1="6.08832" x2="22.5596" y2="8.40388" gradientUnits="userSpaceOnUse">
<stop stop-color="#9A6CF0"/>
<stop offset="0.05" stop-color="#AE77F5"/>
<stop offset="0.12" stop-color="#C081FA"/>
<stop offset="0.2" stop-color="#CB87FD"/>
<stop offset="0.28" stop-color="#CF8AFF"/>
<stop offset="0.37" stop-color="#BF7FF1"/>
<stop offset="0.57" stop-color="#9764CF"/>
<stop offset="0.76" stop-color="#6945A8"/>
<stop offset="0.82" stop-color="#6B47AC"/>
<stop offset="0.87" stop-color="#744DB8"/>
<stop offset="0.93" stop-color="#8259CD"/>
<stop offset="0.99" stop-color="#9568E9"/>
<stop offset="1" stop-color="#9A6CF0"/>
</linearGradient>
<linearGradient id="paint16_linear_282_13579" x1="16.6226" y1="8.83711" x2="16.6226" y2="11.3756" gradientUnits="userSpaceOnUse">
<stop stop-color="#9A6CF0"/>
<stop offset="0.05" stop-color="#AE77F5"/>
<stop offset="0.12" stop-color="#C081FA"/>
<stop offset="0.2" stop-color="#CB87FD"/>
<stop offset="0.28" stop-color="#CF8AFF"/>
<stop offset="0.37" stop-color="#BF7FF1"/>
<stop offset="0.57" stop-color="#9764CF"/>
<stop offset="0.76" stop-color="#6945A8"/>
<stop offset="0.82" stop-color="#6B47AC"/>
<stop offset="0.87" stop-color="#744DB8"/>
<stop offset="0.93" stop-color="#8259CD"/>
<stop offset="0.99" stop-color="#9568E9"/>
<stop offset="1" stop-color="#9A6CF0"/>
</linearGradient>
<linearGradient id="paint17_linear_282_13579" x1="16.8172" y1="11.2893" x2="16.8172" y2="13.8279" gradientUnits="userSpaceOnUse">
<stop stop-color="#9A6CF0"/>
<stop offset="0.05" stop-color="#AE77F5"/>
<stop offset="0.12" stop-color="#C081FA"/>
<stop offset="0.2" stop-color="#CB87FD"/>
<stop offset="0.28" stop-color="#CF8AFF"/>
<stop offset="0.37" stop-color="#BF7FF1"/>
<stop offset="0.57" stop-color="#9764CF"/>
<stop offset="0.76" stop-color="#6945A8"/>
<stop offset="0.82" stop-color="#6B47AC"/>
<stop offset="0.87" stop-color="#744DB8"/>
<stop offset="0.93" stop-color="#8259CD"/>
<stop offset="0.99" stop-color="#9568E9"/>
<stop offset="1" stop-color="#9A6CF0"/>
</linearGradient>
<linearGradient id="paint18_linear_282_13579" x1="18.4633" y1="13.5159" x2="18.4623" y2="14.695" gradientUnits="userSpaceOnUse">
<stop stop-color="#9EC9D8"/>
<stop offset="0.08" stop-color="#AAD3E2"/>
<stop offset="0.19" stop-color="#B3DCEA"/>
<stop offset="0.33" stop-color="#B7DFED"/>
<stop offset="0.49" stop-color="#ABD4E3"/>
<stop offset="0.78" stop-color="#8DB7C8"/>
<stop offset="1" stop-color="#729EB1"/>
</linearGradient>
<linearGradient id="paint19_linear_282_13579" x1="18.3731" y1="15.5594" x2="18.3724" y2="16.6953" gradientUnits="userSpaceOnUse">
<stop stop-color="#9EC9D8"/>
<stop offset="0.08" stop-color="#AAD3E2"/>
<stop offset="0.19" stop-color="#B3DCEA"/>
<stop offset="0.33" stop-color="#B7DFED"/>
<stop offset="0.49" stop-color="#ABD4E3"/>
<stop offset="0.78" stop-color="#8DB7C8"/>
<stop offset="1" stop-color="#729EB1"/>
</linearGradient>
<linearGradient id="paint20_linear_282_13579" x1="17.7148" y1="17.5189" x2="17.7138" y2="18.7909" gradientUnits="userSpaceOnUse">
<stop stop-color="#9EC9D8"/>
<stop offset="0.08" stop-color="#AAD3E2"/>
<stop offset="0.19" stop-color="#B3DCEA"/>
<stop offset="0.33" stop-color="#B7DFED"/>
<stop offset="0.49" stop-color="#ABD4E3"/>
<stop offset="0.78" stop-color="#8DB7C8"/>
<stop offset="1" stop-color="#729EB1"/>
</linearGradient>
<linearGradient id="paint21_linear_282_13579" x1="17.6406" y1="19.472" x2="17.6396" y2="20.744" gradientUnits="userSpaceOnUse">
<stop stop-color="#9EC9D8"/>
<stop offset="0.08" stop-color="#AAD3E2"/>
<stop offset="0.19" stop-color="#B3DCEA"/>
<stop offset="0.33" stop-color="#B7DFED"/>
<stop offset="0.49" stop-color="#ABD4E3"/>
<stop offset="0.78" stop-color="#8DB7C8"/>
<stop offset="1" stop-color="#729EB1"/>
</linearGradient>
</defs>
</svg>
