<svg width="21" height="14" viewBox="0 0 21 14" fill="none" xmlns="http://www.w3.org/2000/svg">
<path d="M1.125 13.5C0.806254 13.5 0.539254 13.392 0.324004 13.176C0.108754 12.96 0.000753879 12.693 3.87931e-06 12.375C-0.000746121 12.057 0.107254 11.79 0.324004 11.574C0.540754 11.358 0.807754 11.25 1.125 11.25H19.125C19.4438 11.25 19.7111 11.358 19.9271 11.574C20.1431 11.79 20.2508 12.057 20.25 12.375C20.2493 12.693 20.1413 12.9604 19.926 13.1771C19.7108 13.3939 19.4438 13.5015 19.125 13.5H1.125ZM1.125 7.875C0.806254 7.875 0.539254 7.767 0.324004 7.551C0.108754 7.335 0.000753879 7.068 3.87931e-06 6.75C-0.000746121 6.432 0.107254 6.165 0.324004 5.949C0.540754 5.733 0.807754 5.625 1.125 5.625H19.125C19.4438 5.625 19.7111 5.733 19.9271 5.949C20.1431 6.165 20.2508 6.432 20.25 6.75C20.2493 7.068 20.1413 7.33538 19.926 7.55213C19.7108 7.76888 19.4438 7.8765 19.125 7.875H1.125ZM1.125 2.25C0.806254 2.25 0.539254 2.142 0.324004 1.926C0.108754 1.71 0.000753879 1.443 3.87931e-06 1.125C-0.000746121 0.807 0.107254 0.54 0.324004 0.324C0.540754 0.108 0.807754 0 1.125 0H19.125C19.4438 0 19.7111 0.108 19.9271 0.324C20.1431 0.54 20.2508 0.807 20.25 1.125C20.2493 1.443 20.1413 1.71037 19.926 1.92712C19.7108 2.14387 19.4438 2.2515 19.125 2.25H1.125Z" fill="#1F74EC"/>
</svg>
